<svg width="62" height="63" viewBox="0 0 62 63" fill="none" xmlns="http://www.w3.org/2000/svg">
<path d="M61.2066 31.4275C61.2066 25.2117 59.4117 19.1355 56.049 13.9673C52.6862 8.79909 47.9067 4.77096 42.3146 2.39229C36.7226 0.013617 30.5693 -0.608752 24.6329 0.603884C18.6964 1.81652 13.2434 4.8097 8.9635 9.2049C4.68356 13.6001 1.76888 19.2 0.588047 25.2963C-0.592787 31.3926 0.0132599 37.7116 2.32955 43.4542C4.64584 49.1969 8.56834 54.1052 13.601 57.5585C18.6337 61.0117 24.5505 62.8549 30.6033 62.8549C34.6223 62.8553 38.602 62.0427 42.3151 60.4635C46.0282 58.8842 49.4021 56.5693 52.2439 53.6509C55.0858 50.7326 57.34 47.2679 58.8778 43.4547C60.4156 39.6416 61.2069 35.5547 61.2066 31.4275Z" fill="#B7ECB1"/>
<path d="M13.3615 24.4556H15.0238L10.0905 36.4906H9.71218L4.68066 24.4556H6.36379L9.87305 32.8715L13.3615 24.4556Z" fill="white"/>
<path d="M19.8938 31.6938V35.059C19.8938 35.3282 19.9832 35.4628 20.1619 35.4628C20.4799 35.4019 20.7768 35.2563 21.0228 35.0406V35.9951C20.7604 36.1762 20.4822 36.3319 20.1917 36.4601C19.9816 36.5432 19.7584 36.5857 19.5333 36.5855C18.8839 36.5855 18.4996 36.3224 18.3805 35.7962C17.799 36.2871 17.0716 36.5591 16.319 36.5672C16.0717 36.5745 15.8256 36.53 15.5956 36.4364C15.3656 36.3428 15.1566 36.202 14.9814 36.0226C14.8054 35.8449 14.6671 35.6316 14.5754 35.3962C14.4836 35.1609 14.4403 34.9085 14.4482 34.6552C14.4474 34.158 14.6342 33.6799 14.9695 33.3213C15.3842 32.8933 15.8961 32.5779 16.459 32.4036L18.4043 31.7152V31.2961C18.4043 30.3478 17.9425 29.8705 17.0191 29.8705C16.1889 29.8705 15.3806 30.311 14.5942 31.1921V29.4636C15.19 28.7519 16.04 28.3949 17.1442 28.3929C17.8653 28.3599 18.5733 28.5993 19.1341 29.0659C19.3155 29.2281 19.4678 29.4218 19.584 29.638C19.7119 29.8571 19.7988 30.0989 19.8402 30.3508C19.8858 30.7989 19.9037 31.2495 19.8938 31.6999V31.6938ZM18.4043 34.8846V32.5412L17.3855 32.945C16.9837 33.0866 16.611 33.3034 16.2862 33.5844C16.0847 33.7993 15.9721 34.0861 15.9721 34.3844C15.9721 34.6828 16.0847 34.9695 16.2862 35.1844C16.3909 35.2874 16.5148 35.3676 16.6505 35.4202C16.7862 35.4728 16.9308 35.4966 17.0757 35.4903C17.3279 35.4847 17.5765 35.4277 17.8071 35.3227C18.0378 35.2177 18.2458 35.0667 18.4192 34.8785" fill="white"/>
<path d="M23.9187 24.4556H22.3994V36.4416H23.9187V24.4556Z" fill="white"/>
<path d="M35.6083 24.4556H37.1693V36.4386H35.4921V27.114L31.9024 31.7457H31.5926L27.9642 27.114V36.4386H26.293V24.4556H27.8748L31.7535 29.3779L35.6083 24.4556Z" fill="white"/>
<path d="M44.304 31.6939V35.0591C44.304 35.3283 44.3934 35.4629 44.5721 35.4629C44.8903 35.4026 45.1873 35.2569 45.433 35.0407V35.9952C45.1706 36.1763 44.8924 36.332 44.6019 36.4602C44.3928 36.5432 44.1706 36.5858 43.9465 36.5856C43.2951 36.5856 42.9108 36.3225 42.7936 35.7964C42.2108 36.2868 41.4826 36.5587 40.7292 36.5673C40.4819 36.5744 40.2358 36.5299 40.0059 36.4362C39.7759 36.3426 39.5669 36.2019 39.3916 36.0227C39.2156 35.845 39.0773 35.6317 38.9855 35.3963C38.8937 35.161 38.8504 34.9087 38.8583 34.6553C38.8575 34.1581 39.0444 33.68 39.3797 33.3214C39.7944 32.8934 40.3062 32.578 40.8692 32.4037L42.8145 31.7153V31.2962C42.8145 30.3479 42.3527 29.8706 41.4292 29.8706C40.5991 29.8706 39.7918 30.3112 39.0073 31.1922V29.4638C39.6031 28.752 40.4521 28.3951 41.5543 28.393C42.2768 28.3567 42.987 28.5941 43.5503 29.0599C43.9163 29.3973 44.1643 29.8487 44.2563 30.3448C44.302 30.7929 44.3199 31.2435 44.3099 31.6939H44.304ZM42.8204 34.8786V32.5352L41.8016 32.939C41.3999 33.0806 41.0272 33.2974 40.7023 33.5784C40.4988 33.7913 40.3836 34.077 40.3808 34.3753C40.378 34.6737 40.4879 34.9615 40.6875 35.1784C40.7922 35.2814 40.9161 35.3616 41.0517 35.4142C41.1874 35.4668 41.332 35.4906 41.4769 35.4843C41.7291 35.4787 41.9778 35.4217 42.2084 35.3167C42.439 35.2117 42.647 35.0607 42.8204 34.8725" fill="white"/>
<path d="M48.4063 28.5459V30.357L48.4897 30.2193C49.2245 28.9956 49.9603 28.3838 50.6971 28.3838C51.2691 28.3838 51.8649 28.6805 52.4845 29.274L51.6832 30.6476C51.1559 30.1337 50.6644 29.8767 50.2145 29.8767C49.9614 29.8825 49.7134 29.9509 49.4914 30.0761C49.2695 30.2012 49.0802 30.3794 48.9395 30.5956C48.5764 31.0854 48.3863 31.6873 48.4003 32.3027V36.4387H46.8721V28.5459H48.4063Z" fill="white"/>
<path d="M54.3369 25.2267C54.456 25.2248 54.5743 25.2473 54.6848 25.293C54.7953 25.3387 54.8959 25.4067 54.9805 25.4928C55.067 25.5762 55.1356 25.6772 55.1818 25.7895C55.2279 25.9017 55.2507 26.0226 55.2486 26.1444C55.2496 26.2661 55.2263 26.3867 55.1801 26.4988C55.134 26.6108 55.0661 26.712 54.9805 26.7961C54.8966 26.8839 54.7965 26.9535 54.686 27.0008C54.5754 27.0481 54.4566 27.0721 54.3369 27.0714C54.221 27.0712 54.1064 27.0464 54.0003 26.9984C53.8942 26.9505 53.7988 26.8806 53.7202 26.793C53.6354 26.709 53.5679 26.6082 53.5219 26.4968C53.4758 26.3854 53.452 26.2655 53.4521 26.1444C53.4527 26.0248 53.4768 25.9066 53.5229 25.7967C53.569 25.6869 53.636 25.5877 53.7202 25.5051C53.7988 25.4175 53.8942 25.3475 54.0003 25.2996C54.1064 25.2517 54.221 25.2269 54.3369 25.2267ZM53.5863 28.5459H55.1144V36.4387H53.5952L53.5863 28.5459Z" fill="white"/>
</svg>
