<svg width="28" height="28" viewBox="0 0 28 28" fill="none" xmlns="http://www.w3.org/2000/svg">
<path d="M27.4458 22.2645L24.3417 20.1949L21.5822 18.3557C21.0497 18.0013 20.334 18.1175 19.9409 18.6221L18.2334 20.8172C17.8666 21.2935 17.2068 21.4304 16.6808 21.1392C15.5222 20.4947 14.1521 19.8879 11.1292 16.8611C8.10618 13.8342 7.49549 12.468 6.85101 11.3094C6.5598 10.7834 6.69668 10.1236 7.173 9.75691L9.36808 8.04942C9.87267 7.65633 9.98888 6.94064 9.63457 6.40805L7.85177 3.73358L5.72571 0.544464C5.36385 0.00164174 4.63947 -0.161325 4.08002 0.174179L1.62808 1.64515C0.965439 2.03556 0.478343 2.66599 0.267689 3.40574C-0.402827 5.8504 -0.538013 11.2432 8.1047 19.886C16.7474 28.5287 22.1398 28.393 24.5844 27.7225C25.3242 27.5119 25.9546 27.0248 26.345 26.3621L27.816 23.9102C28.1515 23.3507 27.9886 22.6264 27.4458 22.2645Z" fill="#55A630"/>
<path d="M15.9197 4.34489C20.4501 4.34992 24.1215 8.02127 24.1265 12.5517C24.1265 12.8183 24.3427 13.0345 24.6093 13.0345C24.8759 13.0345 25.0921 12.8183 25.0921 12.5517C25.0865 7.48829 20.9832 3.38497 15.9198 3.37939C15.6532 3.37939 15.437 3.59552 15.437 3.86217C15.437 4.12871 15.6531 4.34489 15.9197 4.34489Z" fill="#55A630"/>
<path d="M15.9208 7.24094C18.8521 7.24439 21.2276 9.61988 21.231 12.5512C21.231 12.8178 21.4471 13.034 21.7138 13.034C21.9804 13.034 22.1966 12.8179 22.1966 12.5512C22.1926 9.08684 19.3852 6.27938 15.9208 6.27539C15.6542 6.27539 15.438 6.49151 15.438 6.75817C15.438 7.02482 15.6541 7.24094 15.9208 7.24094Z" fill="#55A630"/>
<path d="M15.9197 10.1381C17.2522 10.1397 18.3319 11.2194 18.3335 12.5519C18.3335 12.8185 18.5496 13.0346 18.8163 13.0346C19.0829 13.0346 19.2991 12.8185 19.2991 12.5519C19.2969 10.6864 17.7852 9.17474 15.9198 9.17261C15.6532 9.17261 15.437 9.38873 15.437 9.65538C15.437 9.92198 15.6531 10.1381 15.9197 10.1381Z" fill="#55A630"/>
</svg>
